<?xml version="1.0" encoding="utf-8"?>
<!-- Generator: Adobe Illustrator 24.2.1, SVG Export Plug-In . SVG Version: 6.00 Build 0)  -->
<svg version="1.1" id="Capa_1" xmlns="http://www.w3.org/2000/svg" xmlns:xlink="http://www.w3.org/1999/xlink" x="0px" y="0px"
	 viewBox="0 0 682.5 142.5" style="enable-background:new 0 0 682.5 142.5;" xml:space="preserve">
<style type="text/css">
	.st0{fill:#EF7D00;}
	.st1{opacity:0.3;fill:url(#SVGID_1_);}
	.st2{fill:#FFFFFF;}
</style>
<g>
	<g>
		<path class="st0" d="M636.6,142.4l-50.3,0.1c-25.3,0.1-46.1-20.6-46.1-46l-0.1-50.3C540,20.9,560.7,0.2,586,0.1L636.3,0
			c25.3-0.1,46.1,20.6,46.1,46l0.1,50.3C682.6,121.5,661.9,142.3,636.6,142.4z"/>
		
			<linearGradient id="SVGID_1_" gradientUnits="userSpaceOnUse" x1="579.0513" y1="33.1212" x2="634.0677" y2="88.1377" gradientTransform="matrix(1 -2.099584e-03 2.099584e-03 1 -5.4556 1.8498)">
			<stop  offset="0" style="stop-color:#FFFFFF"/>
			<stop  offset="0.1436" style="stop-color:#FEE5CD"/>
			<stop  offset="0.3163" style="stop-color:#FBC895"/>
			<stop  offset="0.483" style="stop-color:#F7AE65"/>
			<stop  offset="0.6388" style="stop-color:#F4993F"/>
			<stop  offset="0.7815" style="stop-color:#F18923"/>
			<stop  offset="0.9064" style="stop-color:#F0800B"/>
			<stop  offset="1" style="stop-color:#EF7D00"/>
		</linearGradient>
		<path class="st1" d="M635.6,139.5l-48.3,0.1C563,139.7,543,119.8,543,95.5l-0.1-48.3C542.8,22.9,562.7,3,587,2.9l48.3-0.1
			c24.3-0.1,44.3,19.8,44.3,44.1l0.1,48.3C679.8,119.5,659.9,139.5,635.6,139.5z"/>
	</g>
	<g>
		<g>
			<path class="st2" d="M63.5,53.6c4.2,3.5,6.3,8.5,6.3,15c0,2.4-0.3,4.8-0.8,7.2L62,108.9l-18.5,0l6.8-32c0.3-1.3,0.5-2.6,0.5-4.1
				c0-3.1-0.9-5.5-2.7-7.1c-1.8-1.6-4.6-2.4-8.2-2.4c-4.8,0-8.7,1.3-11.8,3.9c-3.1,2.6-5.2,6.4-6.3,11.5L15.3,109l-1.4,0
				c-8.8,0-15.4-8.1-13.6-16.7l9-43l17.6,0l-1.4,6.4c5.7-4.9,12.7-7.4,21-7.4C53.6,48.3,59.3,50.1,63.5,53.6z"/>
			<path class="st2" d="M91.4,49.2l18.4,0l-12.6,59.8l-18.4,0L91.4,49.2z M96,38.2c-2-1.7-3-3.9-3-6.4c0-3,1.1-5.4,3.4-7.4
				c2.2-2,5.2-3,8.8-3c3.2,0,5.9,0.8,7.9,2.5c2,1.7,3,3.7,3,6.2c0,3.2-1.1,5.8-3.4,7.7c-2.3,2-5.3,3-8.9,3
				C100.6,40.8,98,39.9,96,38.2z"/>
			<path class="st2" d="M223.9,53.3c4.1,3.5,6.2,8.5,6.2,14.9c0,2.4-0.3,4.8-0.8,7.3l-6.9,33.1l-18.5,0l6.7-31.9
				c0.3-1.5,0.5-3,0.5-4.6c0-3-0.9-5.3-2.6-6.9c-1.7-1.5-4.2-2.3-7.5-2.3c-8.9,0-14.5,5-16.7,15l-6.5,30.7l-18.5,0l6.7-31.9
				c0.3-1.5,0.5-3,0.5-4.4c0-3-0.9-5.3-2.6-6.9c-1.7-1.6-4.2-2.4-7.5-2.4c-8.9,0-14.6,5.1-16.8,15.2l-6.4,30.4l-18.5,0L127,49.1
				l17.6,0l-1.4,6.2c5.5-4.7,12.2-7.1,20.1-7.1c4.4,0,8.4,0.8,11.8,2.5c3.4,1.7,6,4.1,7.8,7.3c3.1-3.2,6.7-5.6,10.8-7.3
				c4.1-1.7,8.6-2.5,13.5-2.5C214.2,48,219.7,49.8,223.9,53.3z"/>
			<path class="st0" d="M333.4,105.9c-4.9-2.2-8.6-5.3-11.3-9.4c-2.7-4-4-8.7-4-14c0-6.6,1.6-12.5,5-17.8c3.3-5.3,7.9-9.4,13.8-12.5
				c5.9-3,12.5-4.6,19.8-4.6c6.5,0,12.2,1.1,17,3.3c4.8,2.2,8.6,5.3,11.2,9.4c2.7,4,4,8.7,4,14c0,6.6-1.6,12.5-4.9,17.8
				c-3.3,5.3-7.9,9.4-13.8,12.5c-5.9,3-12.5,4.6-19.9,4.6C343.9,109.2,338.3,108.1,333.4,105.9z M361.1,92.4c2.8-1.7,5.1-4,6.6-7
				c1.6-3,2.4-6.4,2.4-10.2c0-4.1-1.3-7.3-3.8-9.7c-2.5-2.4-6.1-3.5-10.7-3.5c-3.6,0-6.9,0.8-9.7,2.5c-2.8,1.7-5.1,4-6.6,7
				c-1.6,3-2.4,6.4-2.4,10.2c0,4.1,1.3,7.3,3.9,9.7c2.6,2.4,6.2,3.5,10.8,3.5C355.1,94.9,358.3,94.1,361.1,92.4z"/>
			<path class="st0" d="M490.4,48.3c8.8,0,15.4,8,13.6,16.6l-3.3,16.6c-1.9,9.2-5.7,16.1-11.4,20.6c-5.7,4.6-13,6.9-21.8,6.9
				c-4.7,0-8.8-0.7-12.4-2.2c-3.6-1.5-6.4-3.6-8.4-6.4c-3.1,3-6.6,5.2-10.5,6.6c-3.9,1.4-8,2.1-12.2,2.1c-8.3,0-14.8-2-19.3-6
				c-4.6-4-6.8-9.4-6.9-16.1c0-2,0.2-4.1,0.7-6.3l6.6-32.1l17.9,0l-6.5,31.7c-0.4,2.1-0.6,3.7-0.6,5c0,6.3,3.5,9.4,10.6,9.4
				c3.8,0,6.8-1.1,9.1-3.3c2.3-2.2,3.9-5.7,5-10.3l6.5-32.4l17.9,0L458.8,80c-0.4,2.1-0.6,3.7-0.6,5c0,6.3,3.5,9.4,10.6,9.4
				c3.9,0,7-1.2,9.3-3.5c2.3-2.3,3.9-5.9,5-10.8l6.3-31.9L490.4,48.3z"/>
		</g>
	</g>
	<path class="st0" d="M299.8,109.4c-1.1-1-1.7-2.4-1.7-4.2c0-1,0.1-1.8,0.2-2.4l10-46.7h-3.6c-8.7,0-16.3,6.1-18.1,14.6l-7,32.5
		c-0.4,2.1-0.6,3.9-0.6,5.4c0,5,1.7,9,5,11.8c3.3,2.8,8,4.2,13.9,4.2c3.5,0,6.8-0.5,10-1.4l1.9-13.2c-1.4,0.6-3.2,0.9-5.2,0.9
		C302.5,110.8,300.9,110.3,299.8,109.4z"/>
	<path class="st0" d="M283.5,19.2c-6.8-0.2-24.8,0.4-29.6,23l-0.8,3.9h-9.3L241.2,59h9.2l-10.4,50.3h18.5L268.9,59h10.9l0.5-2.2
		c1.2-5.7-2.7-11.1-9-11.1c0-4.7,2.4-8.4,4.3-10.1c6.6-5.8,19.2-1.1,19.3,7.7h14.5C309,29.5,297,19.6,283.5,19.2z"/>
	<g>
		<path class="st2" d="M632.4,105.3c-1.8,0-3.1-0.4-4.1-1.2c-1-0.8-1.5-2-1.5-3.6c0-0.9,0.1-1.6,0.2-2.1l8.6-40.1h-3.1
			c-7.5,0-14,5.2-15.5,12.6l-6,28c-0.3,1.8-0.5,3.3-0.5,4.7c0,4.3,1.4,7.7,4.3,10.1c2.9,2.4,6.8,3.6,11.9,3.6c3,0,5.8-0.4,8.6-1.2
			l1.6-11.3C635.7,105.1,634.2,105.3,632.4,105.3z"/>
		<path class="st2" d="M611.5,58.9c1.1-4.9-2.3-9.6-7.7-9.6c0-4.1,2-7.2,3.7-8.7c5.7-5,16.5-1,16.6,6.6h12.5
			c-0.4-11.9-10.6-20.4-22.2-20.7c-5.9-0.2-21.3,0.4-25.4,19.8l-0.7,3.3h-7.9L578,60.8h7.9L577,104h15.9l8.8-43.2h9.4L611.5,58.9z"
			/>
	</g>
</g>
</svg>
